<svg width="1716" height="170" viewBox="0 0 1716 170" fill="none" xmlns="http://www.w3.org/2000/svg">
<g clip-path="url(#clip0_433_235)">
<path d="M17.8737 42.2146H29.0942C28.25 44.3886 27.8004 46.7716 27.6822 49.4754C27.6505 50.0327 27.6505 50.5519 27.6505 51.0542V84.4291H0V38.3878C0 37.9171 0 37.4718 0.02741 37.0264C0.31238 30.4029 2.95285 26.6838 7.99541 22.9394L12.7256 19.4314L24.4232 10.8154C28.3745 7.80336 29.8034 5.08051 29.8034 0.3145V0H42.2146V1.91231C42.2146 10.3447 39.9793 14.7962 34.6244 18.7749L33.0392 19.902L22.2787 27.8616C21.2994 28.5856 20.322 29.3095 19.3427 30.0314C18.5617 30.6098 13.7155 34.5969 13.7155 37.7778C13.7155 40.1608 15.537 42.2146 17.8737 42.2146ZM51.2147 42.6958C52.194 41.9739 53.1714 41.2499 54.1507 40.526L64.9111 32.5664L66.4964 31.4393C71.8513 27.4606 74.0865 23.0091 74.0865 14.5767V12.6644H61.6754V12.9789C61.6754 17.7449 60.2465 20.4677 56.2952 23.4797L44.5976 32.0957L39.8674 35.6037C34.8248 39.3482 32.1844 43.0673 31.8994 49.6907C31.872 50.1361 31.872 50.5815 31.872 51.0522V97.0935H74.0865L74.0231 54.8789H49.7457C47.409 54.8789 45.5875 52.8252 45.5875 50.4422C45.5875 47.2613 50.4337 43.2741 51.2147 42.6958Z" fill="black"/>
<path d="M1698.11 54.8789H1686.89C1687.73 52.7049 1688.18 50.3219 1688.3 47.618C1688.33 47.0608 1688.33 46.5415 1688.33 46.0392V12.6644H1715.98V58.7057C1715.98 59.1764 1715.98 59.6217 1715.95 60.0671C1715.67 66.6905 1713.03 70.4097 1707.99 74.1541L1703.26 77.6621L1691.56 86.2781C1687.61 89.2901 1686.18 92.013 1686.18 96.779V97.0935H1673.77V95.1812C1673.77 86.7488 1676 82.2973 1681.36 78.3186L1682.94 77.1914L1693.7 69.2319C1694.68 68.5079 1695.66 67.7839 1696.64 67.062C1697.42 66.4837 1702.27 62.4966 1702.27 59.3157C1702.27 56.9327 1700.44 54.8789 1698.11 54.8789ZM1664.77 54.3977C1663.79 55.1196 1662.81 55.8435 1661.83 56.5675L1651.07 64.5271L1649.49 65.6542C1644.13 69.6329 1641.9 74.0844 1641.9 82.5168V84.4291H1654.31V84.1146C1654.31 79.3486 1655.74 76.6257 1659.69 73.6137L1671.38 64.9977L1676.11 61.4897C1681.16 57.7453 1683.8 54.0262 1684.08 47.4027C1684.11 46.9573 1684.11 46.512 1684.11 46.0413V0H1641.9L1641.96 42.2146H1666.24C1668.57 42.2146 1670.39 44.2683 1670.39 46.6513C1670.39 49.8322 1665.55 53.8193 1664.77 54.3977Z" fill="black"/>
<path d="M95.1934 21.1073H114.934L135.911 99.1028C136.9 102.778 142.103 102.808 143.134 99.1452L165.109 21.1073H183.04L204.267 98.9848C205.27 102.666 210.491 102.666 211.494 98.9848L232.721 21.1073H251.968L219.067 136.262H196.859L176.982 64.6773C175.963 61.0089 170.756 61.023 169.758 64.6969L150.303 136.262H128.095L95.1934 21.1073Z" fill="black"/>
<path d="M260.869 21.1073H278.8V52.5765C278.8 56.1844 282.799 58.2652 285.821 56.2945C290.608 53.1725 296.949 51.0475 305.286 51.0475C324.04 51.0475 339.174 61.2469 339.174 89.3776V136.262H321.408V90.8581C321.408 74.901 314.498 66.3466 301.338 66.3466C286.368 66.3466 278.8 75.888 278.8 92.0097V136.262H260.869V21.1073Z" fill="black"/>
<path d="M350.706 112.573C350.706 95.2998 363.209 85.5939 386.733 85.5939H402.855C405.671 85.5939 407.954 83.3107 407.954 80.4942C407.954 70.7883 401.21 65.3596 389.53 65.3596C378.672 65.3596 371.927 70.1303 370.611 77.6976H353.174C354.983 61.2469 369.131 51.0475 390.352 51.0475C412.725 51.0475 425.557 61.7405 425.557 81.6458V115.37C425.557 119.647 427.202 120.798 430.985 120.798H434.605V136.262H425.228C414.206 136.262 409.764 131.162 409.764 123.43V123.101C404.5 131.327 395.781 137.249 381.962 137.249C363.538 137.249 350.706 128.201 350.706 112.573ZM407.954 101.716C407.954 100.08 406.629 98.7545 404.993 98.7545H385.911C374.889 98.7545 368.802 102.867 368.802 111.257C368.802 118.989 374.724 123.431 384.43 123.431C399.236 123.431 407.954 114.712 407.954 101.716Z" fill="black"/>
<path d="M447.733 113.396V71.4085C447.733 69.3397 446.056 67.6627 443.987 67.6627H433.092V52.0345H443.987C446.056 52.0345 447.733 50.3575 447.733 48.2887V28.5101H465.5V48.2887C465.5 50.3575 467.177 52.0345 469.245 52.0345H487.215V67.6627H469.245C467.177 67.6627 465.5 69.3397 465.5 71.4085V111.586C465.5 118.166 467.967 120.634 474.712 120.634H487.215V136.262H470.599C454.478 136.262 447.733 128.695 447.733 113.396Z" fill="black"/>
<path d="M537.223 112.573C537.223 95.2998 549.725 85.5939 573.25 85.5939H589.371C592.188 85.5939 594.471 83.3107 594.471 80.4942C594.471 70.7883 587.726 65.3596 576.046 65.3596C565.189 65.3596 558.444 70.1303 557.128 77.6976H539.69C541.5 61.2469 555.647 51.0475 576.869 51.0475C599.242 51.0475 612.073 61.7404 612.073 81.6457V115.37C612.073 119.647 613.718 120.798 617.502 120.798H621.121V136.262H611.744C600.722 136.262 596.281 131.162 596.281 123.43V123.101C591.016 131.327 582.298 137.249 568.479 137.249C550.054 137.249 537.223 128.201 537.223 112.573ZM594.471 101.716C594.471 100.08 593.145 98.7545 591.51 98.7545H572.427C561.405 98.7545 555.318 102.867 555.318 111.257C555.318 118.989 561.241 123.43 570.947 123.43C585.752 123.43 594.471 114.712 594.471 101.716Z" fill="black"/>
<path d="M630.679 52.0345H645.034C645.768 52.0345 646.394 52.566 646.513 53.2901L646.726 54.586C647.272 57.9125 651.148 59.4779 653.846 57.4564C658.853 53.7044 665.685 51.0475 675.096 51.0475C693.849 51.0475 708.984 61.2469 708.984 89.3776V136.262H691.217V90.6936C691.217 74.7365 684.308 66.3466 671.147 66.3466C656.177 66.3466 648.61 75.7235 648.61 91.8452V136.262H630.679V52.0345Z" fill="black"/>
<path d="M998.841 51.0442C987.603 51.0442 979.64 55.4942 974.066 61.3378C974.058 61.3452 974.051 61.3528 974.044 61.3602C973.684 61.7198 973.19 61.9371 972.643 61.9371C971.699 61.9371 970.904 61.2778 970.702 60.3863C970.687 60.2214 970.672 60.0567 970.658 59.8845C970.485 57.8167 970.343 55.1872 970.343 52.0333H953.704L953.711 55.3744H953.704C953.704 64.4767 951.134 68.8594 945.988 72.9198L938.878 78.4113C933.581 61.0231 919.227 51.0442 901.113 51.0442C889.831 51.0442 881.851 55.5272 876.277 61.3929C875.92 61.7358 875.44 61.9446 874.907 61.9446C873.964 61.9446 873.172 61.2874 872.968 60.3982C872.774 58.2535 872.609 55.4602 872.609 52.0333H856.036V55.3744C856.036 59.9218 855.391 63.2931 854.11 66.0351C852.822 68.7769 850.889 70.8896 848.319 72.9198L841.045 78.5385C835.463 61.6673 820.54 51.0442 800.515 51.0442C774.849 51.0442 757.58 68.4849 757.58 94.1436C757.58 119.975 774.849 137.251 800.515 137.251C819.139 137.251 833.343 128.148 839.734 113.277C840.378 111.794 840.94 110.243 841.411 108.647C842.028 106.605 842.503 104.47 842.842 102.256V102.284C843.381 98.4644 845.478 95.2719 847.806 93.4556L851.001 91.027L856.036 87.1754V169.165H873.97V132.146C873.97 129.589 876.969 128.204 878.908 129.872C884.198 134.424 891.634 137.251 901.277 137.251C917.901 137.251 931.394 128.208 937.522 113.277C938.114 111.839 938.638 110.341 939.088 108.79C939.682 106.75 940.147 104.617 940.479 102.402L940.479 102.433C941.017 98.6223 943.134 95.2896 945.455 93.4701L948.67 91.027L953.771 87.1239V169.165H971.699V132.141C971.699 129.587 974.703 128.201 976.636 129.871C981.932 134.419 989.364 137.251 999.006 137.251C1021.88 137.251 1038.82 120.14 1038.82 94.1436C1038.82 67.1662 1021.88 51.0442 998.841 51.0442ZM800.515 122.11C785.546 122.11 775.837 110.43 775.837 94.1436C775.837 77.8644 785.546 66.1773 800.515 66.1773C815.333 66.1773 825.155 77.6245 825.349 93.6492C825.222 94.286 825.155 94.9528 825.155 95.6645V98.0618C823.702 112.273 814.254 122.11 800.515 122.11ZM898.153 122.11C883.507 122.11 873.641 110.76 873.641 93.9789C873.641 77.5346 883.507 66.1773 898.153 66.1773C912.957 66.1773 922.823 77.5346 922.823 94.1436C922.823 110.925 912.957 122.11 898.153 122.11ZM995.882 122.11C981.243 122.11 971.369 110.76 971.369 93.9789C971.369 77.5346 981.243 66.1773 995.882 66.1773C1010.69 66.1773 1020.56 77.5346 1020.56 94.1436C1020.56 110.925 1010.69 122.11 995.882 122.11Z" fill="black"/>
<path d="M1165.63 61.3998C1165.64 61.3866 1165.65 61.3736 1165.66 61.3604C1165.34 61.7575 1164.81 61.9372 1164.26 61.9372C1163.32 61.9372 1163 61.2838 1162.79 60.3924C1162.81 60.6247 1162.84 60.8473 1162.86 61.0641C1162.64 58.8453 1162.44 55.8257 1162.44 52.0333H1161.49L1145.87 52.0331L1145.86 52.0333L1145.87 52.7229V55.3744H1145.86C1145.86 64.4767 1143.29 68.8593 1138.15 72.9198L1130.88 78.5385C1125.29 61.6673 1110.38 51.0442 1090.34 51.0442C1064.68 51.0442 1047.41 68.4849 1047.41 94.1436C1047.41 119.975 1064.68 137.251 1090.34 137.251C1108.98 137.251 1123.18 128.148 1129.56 113.277C1130.2 111.801 1130.76 110.266 1131.24 108.677C1131.85 106.645 1132.32 104.521 1132.66 102.318V102.368C1133.2 98.548 1135.3 95.3554 1137.63 93.5392H1137.53L1140.83 91.027L1145.87 87.1744V136.26H1163.8V93.9823C1163.8 80.9862 1168.73 68.6483 1184.69 68.6483H1192.42V52.0331H1188.31C1176.49 52.0331 1169.96 56.0506 1165.63 61.3998ZM1090.34 122.11C1075.38 122.11 1065.67 110.43 1065.67 94.1436C1065.67 77.8644 1075.38 66.1773 1090.34 66.1773C1105.16 66.1773 1114.98 77.6245 1115.18 93.6492C1115.05 94.286 1114.98 94.9528 1114.98 95.6645V98.0617C1113.53 112.273 1104.08 122.11 1090.34 122.11Z" fill="black"/>
<path d="M1229.68 48.2872V28.5086H1211.91V48.2872C1211.91 50.3561 1210.24 52.0331 1208.17 52.0331H1197.27V67.6612H1208.17C1210.24 67.6612 1211.91 69.3382 1211.91 71.4071V113.394C1211.91 128.693 1218.66 136.26 1234.78 136.26H1251.4V120.632H1238.89C1232.15 120.632 1229.68 118.165 1229.68 111.584V71.4071C1229.68 69.3383 1231.36 67.6612 1233.43 67.6612H1251.4V52.0331H1233.43C1231.36 52.0331 1229.68 50.3561 1229.68 48.2872Z" fill="black"/>
<path d="M1398.25 51.0461C1389.4 51.0461 1382.83 53.3967 1377.91 56.7984C1374.71 59.0131 1370.3 57.1296 1369.67 53.2887C1369.55 52.5646 1368.92 52.0331 1368.19 52.0331H1353.83V136.26H1371.77V91.8438C1371.77 75.7221 1379.33 66.3451 1394.3 66.3451C1407.46 66.3451 1414.37 74.735 1414.37 90.6922V136.26H1432.14V89.376C1432.14 61.2455 1417 51.0461 1398.25 51.0461Z" fill="black"/>
<path d="M1456.7 19.1317C1450.94 19.1317 1446.34 23.409 1446.34 29.3311C1446.34 35.2533 1450.94 39.6951 1456.7 39.6951C1462.62 39.6951 1467.06 35.2534 1467.06 29.3311C1467.06 23.4088 1462.62 19.1317 1456.7 19.1317Z" fill="black"/>
<path d="M1465.75 52.0331H1447.82V136.26H1465.75V52.0331Z" fill="black"/>
<path d="M1505.95 48.2872V28.5086H1488.19V48.2872C1488.19 50.3561 1486.51 52.0331 1484.44 52.0331H1473.54V67.6612H1484.44C1486.51 67.6612 1488.19 69.3382 1488.19 71.4071V113.394C1488.19 128.693 1494.93 136.26 1511.05 136.26H1527.67V120.632H1515.17C1508.42 120.632 1505.95 118.165 1505.95 111.584V71.4071C1505.95 69.3383 1507.63 67.6612 1509.7 67.6612H1527.67V52.0331H1509.7C1507.63 52.0331 1505.95 50.3561 1505.95 48.2872Z" fill="black"/>
<path d="M1598.57 52.0331L1578.35 108.22C1577.4 110.859 1573.67 110.863 1572.71 108.226L1552.34 52.0331H1533.26L1563.31 130.448C1564.83 134.406 1564.85 138.781 1563.37 142.753L1562.54 144.979C1560.08 151.889 1558.43 153.534 1551.52 153.534H1539.02V169.162H1558.1C1570.44 169.162 1574.06 163.24 1579.32 149.586L1617.49 52.0331L1598.57 52.0331Z" fill="black"/>
<path d="M1319.01 97.0474C1319.01 98.9578 1318.91 100.748 1318.71 102.434C1317.28 114.668 1310.7 121.066 1299.86 121.066H1297.75C1286.91 121.066 1280.34 114.668 1278.9 102.434C1278.7 100.748 1278.61 98.9578 1278.61 97.0474V52.0826H1260.92V98.3435C1260.92 101.213 1261.08 103.895 1261.39 106.397C1262.86 118.369 1267.68 126.167 1274.38 130.767C1275.13 131.292 1275.91 131.764 1276.71 132.206C1278.22 133.03 1279.81 133.712 1281.47 134.266C1282.02 134.453 1282.58 134.626 1283.15 134.783H1283.1C1283.47 134.873 1283.84 134.963 1284.22 135.052C1284.53 135.127 1284.84 135.21 1285.15 135.277C1293.36 137.15 1303.89 137.922 1314.59 134.753H1314.56C1316.78 134.131 1318.91 133.292 1320.9 132.206C1330.29 127.059 1336.69 116.518 1336.69 98.3435V52.0826H1319.01V97.0474Z" fill="black"/>
</g>
<defs>
<clipPath id="clip0_433_235">
<rect width="1715.98" height="169.165" fill="white"/>
</clipPath>
</defs>
</svg>
