<svg width="1545" height="467" viewBox="0 0 1545 467" fill="none" xmlns="http://www.w3.org/2000/svg">
<g clip-path="url(#clip0_433_325)">
<path d="M48.3697 75.3467C48.3281 76.022 48.3281 76.6973 48.3281 77.4111V147.224H112.339L112.243 83.2136H75.4302C71.8871 83.2136 69.1251 80.0996 69.1251 76.4861C69.1251 71.6631 76.4736 65.6172 77.6578 64.7402C79.1428 63.6455 80.6247 62.5479 82.1096 61.4502L98.4259 49.3809L100.83 47.6719C108.949 41.6387 112.339 34.8889 112.339 22.1028V19.2031H93.5195V19.6799C93.5195 26.9067 91.3529 31.0354 85.3614 35.6025L67.6241 48.6672L60.4517 53.9863C52.8056 59.6641 48.8018 65.3035 48.3697 75.3467Z" fill="#022781"/>
<path d="M41.9269 77.4143C41.9269 76.6526 41.9269 75.8652 41.9749 75.0203C42.1542 70.9204 42.8358 67.3071 44.116 64.0105H27.1022C23.5591 64.0105 20.7971 60.8965 20.7971 57.283C20.7971 52.4597 28.1454 46.4141 29.3297 45.5371C30.8146 44.4424 32.2966 43.3447 33.7816 42.2468L50.0978 30.1777L52.5015 28.4688C60.6213 22.4356 64.0106 15.6858 64.0106 2.89967V0H45.1914V0.47681C45.1914 7.70362 43.0248 11.8323 37.0333 16.3994L19.296 29.4639L12.1236 34.7832C4.47748 40.4609 0.47369 46.1003 0.04156 56.1436C0 56.8188 0 57.4941 0 58.208V128.021H41.9269V77.4143Z" fill="#022781"/>
<path d="M1496.2 278.494C1496.24 277.818 1496.24 277.143 1496.24 276.429V206.616H1432.23L1432.33 270.627H1469.14C1472.68 270.627 1475.45 273.741 1475.45 277.354C1475.45 282.177 1468.1 288.223 1466.91 289.1C1465.43 290.195 1463.95 291.292 1462.46 292.39L1446.15 304.459L1443.74 306.169C1435.62 312.202 1432.23 318.951 1432.23 331.738V334.637H1451.05V334.16C1451.05 326.934 1453.22 322.805 1459.21 318.238L1476.95 305.173L1484.12 299.854C1491.77 294.176 1495.77 288.537 1496.2 278.494Z" fill="#022781"/>
<path d="M1502.64 225.819V276.426C1502.64 277.188 1502.64 277.975 1502.6 278.82C1502.42 282.92 1501.74 286.533 1500.45 289.83H1517.47C1521.01 289.83 1523.77 292.944 1523.77 296.557C1523.77 301.381 1516.43 307.426 1515.24 308.303C1513.76 309.398 1512.27 310.496 1510.79 311.594L1494.47 323.663L1492.07 325.372C1483.95 331.405 1480.56 338.155 1480.56 350.941V353.84H1499.38V353.364C1499.38 346.137 1501.55 342.008 1507.54 337.441L1525.28 324.376L1532.45 319.057C1540.09 313.379 1544.1 307.74 1544.53 297.697C1544.57 297.021 1544.57 296.346 1544.57 295.633V225.819H1502.64Z" fill="#022781"/>
<path d="M227.908 206.616L257.407 98.1008C258.921 92.53 266.816 92.5085 268.361 98.0713L298.5 206.616H332.175L382.064 32.0054H352.879L320.693 150.092C319.172 155.674 311.254 155.674 309.733 150.092L277.547 32.0054H250.358L217.037 150.335C215.473 155.89 207.584 155.843 206.085 150.271L174.277 32.0054H144.344L194.233 206.616L227.908 206.616Z" fill="#022781"/>
<path d="M487.356 137.77V206.616H514.296V135.524C514.296 92.8696 491.347 77.404 462.91 77.404C450.269 77.404 440.655 80.6262 433.395 85.3601C428.813 88.3484 422.75 85.1933 422.75 79.7226V32.0054H395.561V206.616H422.75V139.516C422.75 115.07 434.224 100.602 456.924 100.602C476.879 100.602 487.356 113.573 487.356 137.77Z" fill="#022781"/>
<path d="M610.856 129.787H586.411C550.74 129.787 531.782 144.505 531.782 170.696C531.782 194.393 551.239 208.113 579.177 208.113C600.13 208.113 613.35 199.133 621.333 186.661V187.159C621.333 198.883 628.068 206.616 644.78 206.616H658.999V183.168H653.511C647.774 183.168 645.279 181.422 645.279 174.937V123.801C645.279 93.6179 625.823 77.4041 591.898 77.4041C559.72 77.4041 538.268 92.8696 535.524 117.814H561.965C563.961 106.34 574.188 99.1057 590.651 99.1057C608.362 99.1057 618.589 107.337 618.589 122.055C618.589 126.325 615.127 129.787 610.856 129.787ZM618.589 154.233C618.589 173.939 605.368 187.159 582.918 187.159C568.201 187.159 559.221 180.425 559.221 168.701C559.221 155.979 568.451 149.743 585.163 149.743H614.099C616.579 149.743 618.589 151.753 618.589 154.233Z" fill="#022781"/>
<path d="M678.906 108.278V171.943C678.906 195.142 689.133 206.616 713.578 206.616H738.772V182.919H719.814C709.587 182.919 705.846 179.177 705.846 169.199V108.278C705.846 105.141 708.389 102.598 711.525 102.598H738.772V78.9009H711.525C708.389 78.9009 705.846 76.3579 705.846 73.2209V43.2302H678.906V73.2209C678.906 76.3579 676.363 78.9009 673.226 78.9009H656.705V102.598H673.226C676.363 102.598 678.906 105.141 678.906 108.278Z" fill="#022781"/>
<path d="M904.151 187.159C904.151 198.883 910.886 206.616 927.599 206.616H941.817V183.168H936.329C930.592 183.168 928.098 181.422 928.098 174.937V123.801C928.098 93.6179 908.641 77.4041 874.717 77.4041C842.538 77.4041 821.086 92.8696 818.342 117.814H844.783C846.779 106.34 857.006 99.1057 873.469 99.1057C891.18 99.1057 901.407 107.337 901.407 122.055C901.407 126.325 897.945 129.787 893.674 129.787H869.229C833.558 129.787 814.601 144.505 814.601 170.696C814.601 194.393 834.057 208.113 861.995 208.113C882.948 208.113 896.169 199.133 904.151 186.661V187.159ZM865.737 187.159C851.019 187.159 842.039 180.425 842.039 168.701C842.039 155.979 851.269 149.743 867.982 149.743H896.917C899.397 149.743 901.407 151.753 901.407 154.233C901.407 173.939 888.187 187.159 865.737 187.159Z" fill="#022781"/>
<path d="M1048.11 206.616H1075.04V135.524C1075.04 92.8696 1052.1 77.4041 1023.66 77.4041C1009.39 77.4041 999.031 81.4329 991.438 87.1221C987.348 90.187 981.47 87.8135 980.642 82.7695L980.319 80.8047C980.139 79.7065 979.19 78.9009 978.077 78.9009H956.31V206.616H983.499V139.266C983.499 114.821 994.973 100.602 1017.67 100.602C1037.63 100.602 1048.11 113.324 1048.11 137.52L1048.11 206.616Z" fill="#022781"/>
<path d="M365.827 287.214C348.788 287.214 336.713 293.962 328.261 302.823C328.25 302.834 328.238 302.845 328.227 302.857C327.682 303.402 326.932 303.731 326.103 303.731C324.671 303.731 323.467 302.732 323.16 301.38C323.138 301.13 323.115 300.88 323.093 300.619C322.831 297.484 322.615 293.496 322.615 288.714H297.385L297.397 293.78H297.385C297.385 307.582 293.489 314.228 285.685 320.385L274.904 328.711C266.873 302.346 245.108 287.214 217.641 287.214C200.432 287.214 188.303 294.101 179.844 303.073C179.908 303.006 179.964 302.935 180.028 302.868C179.483 303.413 178.734 303.743 177.904 303.743C176.475 303.743 175.273 302.746 174.964 301.398C174.671 298.146 174.421 293.91 174.421 288.714H149.289V293.78C149.289 300.676 148.312 305.788 146.37 309.945C144.416 314.103 141.485 317.306 137.589 320.385L126.558 328.904C118.095 303.322 95.4669 287.214 65.1025 287.214C26.1844 287.214 0 313.66 0 352.567C0 391.735 26.1844 417.93 65.1025 417.93C93.343 417.93 114.881 404.128 124.571 381.58C125.547 379.33 126.399 376.979 127.115 374.559C128.049 371.462 128.77 368.225 129.284 364.868V364.911C130.102 359.118 133.282 354.277 136.812 351.523L141.656 347.841L149.289 342.001V466.323H176.484V410.191C176.484 406.313 181.031 404.212 183.971 406.742C191.993 413.644 203.268 417.93 217.89 417.93C243.097 417.93 263.556 404.219 272.848 381.58C273.746 379.398 274.541 377.126 275.223 374.775C276.123 371.683 276.828 368.447 277.333 365.088L277.333 365.135C278.149 359.352 281.366 354.294 284.889 351.537L289.752 347.841L297.488 341.922V466.323H324.671V410.183C324.671 406.309 329.227 404.208 332.157 406.741C340.189 413.636 351.458 417.93 366.078 417.93C400.758 417.93 426.443 391.985 426.443 352.567C426.443 311.66 400.758 287.214 365.827 287.214ZM102.465 354.873V358.508C100.261 380.057 85.936 394.972 65.1025 394.972C42.4058 394.972 27.6837 377.263 27.6837 352.567C27.6837 327.882 42.4058 310.161 65.1025 310.161C87.5722 310.161 102.465 327.519 102.76 351.817C102.567 352.782 102.465 353.793 102.465 354.873ZM213.153 394.972C190.945 394.972 175.985 377.762 175.985 352.317C175.985 327.382 190.945 310.161 213.153 310.161C235.6 310.161 250.561 327.382 250.561 352.567C250.561 378.012 235.6 394.972 213.153 394.972ZM361.341 394.972C339.144 394.972 324.172 377.762 324.172 352.317C324.172 327.382 339.144 310.161 361.341 310.161C383.798 310.161 398.759 327.382 398.759 352.567C398.759 378.012 383.798 394.972 361.341 394.972Z" fill="#022781"/>
<path d="M618.734 302.917C618.75 302.897 618.763 302.877 618.779 302.857C618.298 303.459 617.485 303.732 616.655 303.732C615.224 303.732 614.74 302.742 614.433 301.391C614.139 298.14 613.889 293.91 613.889 288.714H588.762L588.764 289.775V293.78H588.762C588.762 307.582 584.865 314.228 577.061 320.385L566.042 328.904C557.568 303.322 534.951 287.214 504.575 287.214C465.657 287.214 439.473 313.66 439.473 352.567C439.473 391.735 465.657 417.93 504.575 417.93C532.827 417.93 554.365 404.128 564.043 381.58C565.009 379.341 565.861 377.013 566.587 374.604C567.509 371.523 568.226 368.303 568.742 364.962V365.038C569.559 359.245 572.739 354.404 576.269 351.65H576.117L581.128 347.841L588.764 341.999V416.429H615.953V352.322C615.953 332.616 623.437 313.908 647.633 313.908H659.357V288.714H653.121C635.203 288.714 625.293 294.806 618.734 302.917ZM541.937 354.873V358.508C539.734 380.057 525.409 394.972 504.575 394.972C481.878 394.972 467.156 377.263 467.156 352.567C467.156 327.882 481.878 310.161 504.575 310.161C527.044 310.161 541.937 327.519 542.232 351.817C542.039 352.782 541.937 353.793 541.937 354.873Z" fill="#022781"/>
<path d="M715.853 283.034V253.043H688.913V283.034C688.913 286.171 686.37 288.714 683.234 288.714H666.713V312.411H683.234C686.37 312.411 688.913 314.954 688.913 318.091V381.756C688.913 404.955 699.141 416.429 723.586 416.429H748.78V392.732H729.822C719.595 392.732 715.853 388.99 715.853 379.013V318.091C715.853 314.954 718.396 312.411 721.533 312.411H748.78V288.714H721.533C718.396 288.714 715.853 286.171 715.853 283.034Z" fill="#022781"/>
<path d="M971.459 287.217C958.037 287.217 948.075 290.782 940.62 295.939C935.767 299.298 929.075 296.442 928.119 290.618C927.939 289.52 926.99 288.714 925.877 288.714H904.109V416.429H931.299V349.079C931.299 324.634 942.773 310.416 965.473 310.416C985.428 310.416 995.905 323.137 995.905 347.333V416.429H1022.84V345.338C1022.84 302.683 999.896 287.217 971.459 287.217Z" fill="#022781"/>
<path d="M1073.81 288.714H1046.62V416.429H1073.81V288.714Z" fill="#022781"/>
<path d="M1060.09 238.825C1051.36 238.825 1044.37 245.311 1044.37 254.291C1044.37 263.271 1051.36 270.006 1060.09 270.006C1069.07 270.006 1075.8 263.271 1075.8 254.291C1075.8 245.311 1069.07 238.825 1060.09 238.825Z" fill="#022781"/>
<path d="M1134.77 283.034V253.043H1107.83V283.034C1107.83 286.171 1105.29 288.714 1102.15 288.714H1085.63V312.411H1102.15C1105.29 312.411 1107.83 314.954 1107.83 318.091V381.756C1107.83 404.955 1118.06 416.429 1142.5 416.429H1167.7V392.732H1148.74C1138.51 392.732 1134.77 388.99 1134.77 379.013V318.091C1134.77 314.954 1137.31 312.411 1140.45 312.411H1167.7V288.714H1140.45C1137.31 288.714 1134.77 286.171 1134.77 283.034Z" fill="#022781"/>
<path d="M1275.21 288.714L1244.54 373.91C1243.1 377.913 1237.45 377.919 1236 373.92L1205.11 288.714H1176.18L1221.75 407.616C1224.05 413.617 1224.08 420.251 1221.83 426.274L1220.58 429.65C1216.84 440.126 1214.34 442.621 1203.86 442.621H1184.91V466.318H1213.84C1232.55 466.318 1238.04 457.338 1246.02 436.634L1303.89 288.714L1275.21 288.714Z" fill="#022781"/>
<path d="M851.301 356.97C851.301 359.867 851.153 362.582 850.847 365.137C848.677 383.688 838.703 393.389 822.265 393.389H819.074C802.636 393.389 792.663 383.688 790.493 365.137C790.186 362.582 790.038 359.867 790.038 356.97V288.789H763.229V358.935C763.229 363.286 763.468 367.353 763.934 371.147C766.16 389.299 773.476 401.125 783.631 408.1C784.767 408.895 785.949 409.611 787.164 410.281C789.459 411.53 791.867 412.564 794.378 413.405C795.219 413.689 796.059 413.95 796.922 414.188H796.854C797.411 414.325 797.979 414.461 798.547 414.598C799.024 414.711 799.49 414.836 799.955 414.938C812.417 417.778 828.377 418.948 844.61 414.143H844.553C847.927 413.2 851.153 411.928 854.175 410.281C868.409 402.477 878.11 386.494 878.11 358.935V288.789H851.301V356.97Z" fill="#022781"/>
<path d="M1328.54 390.89H1302.93V416.495H1328.54V390.89Z" fill="#022781"/>
<path d="M1364.38 390.89H1338.78V416.495H1364.38V390.89Z" fill="#022781"/>
<path d="M1400.23 390.89H1374.62V416.495H1400.23V390.89Z" fill="#022781"/>
</g>
<defs>
<clipPath id="clip0_433_325">
<rect width="1544.57" height="466.323" fill="white"/>
</clipPath>
</defs>
</svg>
