<svg width="1530" height="493" viewBox="0 0 1530 493" fill="none" xmlns="http://www.w3.org/2000/svg">
<g clip-path="url(#clip0_431_170)">
<path d="M51.0781 79.5666C51.0342 80.2798 51.0342 80.9929 51.0342 81.7466V155.469H118.629L118.528 87.8743H79.654C75.9126 87.8743 72.9959 84.5857 72.9959 80.7698C72.9959 75.6765 80.7559 69.2922 82.0064 68.366C83.5745 67.2102 85.1394 66.051 86.7075 64.8918L103.937 52.1465L106.476 50.3418C115.05 43.9709 118.629 36.843 118.629 23.3408V20.2788H98.7563V20.7825C98.7563 28.4138 96.4685 32.7737 90.1413 37.5967L71.4106 51.3928L63.8367 57.01C55.7622 63.0056 51.5344 68.9609 51.0781 79.5666Z" fill="white"/>
<path d="M44.2749 81.7498C44.2749 80.9453 44.2749 80.1138 44.3254 79.2217C44.5149 74.8921 45.2346 71.0764 46.5867 67.5952H28.6199C24.8784 67.5952 21.9617 64.3067 21.9617 60.491C21.9617 55.3977 29.7214 49.0132 30.9722 48.0874C32.5403 46.9314 34.1052 45.772 35.6733 44.6128L52.9033 31.8677L55.4417 30.063C64.0161 23.6921 67.5952 16.5642 67.5952 3.06201V0H47.7222V0.50342C47.7222 8.13501 45.4343 12.4949 39.1072 17.3179L20.3765 31.114L12.8025 36.7312C4.72827 42.7271 0.50024 48.6821 0.0437 59.2878C0 60.001 0 60.7141 0 61.4678V135.191H44.2749V81.7498Z" fill="white"/>
<path d="M1478.26 294.09C1478.31 293.377 1478.31 292.664 1478.31 291.91V218.188H1410.71L1410.81 285.783H1449.69C1453.43 285.783 1456.34 289.071 1456.34 292.887C1456.34 297.98 1448.58 304.365 1447.33 305.291C1445.77 306.447 1444.2 307.606 1442.63 308.765L1425.4 321.51L1422.86 323.315C1414.29 329.686 1410.71 336.814 1410.71 350.316V353.378H1430.58V352.875C1430.58 345.243 1432.87 340.883 1439.2 336.06L1457.93 322.264L1465.5 316.647C1473.58 310.651 1477.81 304.696 1478.26 294.09Z" fill="white"/>
<path d="M1485.07 238.466V291.907C1485.07 292.711 1485.07 293.542 1485.01 294.435C1484.83 298.764 1484.11 302.58 1482.75 306.061H1500.72C1504.46 306.061 1507.38 309.35 1507.38 313.166C1507.38 318.259 1499.62 324.643 1498.37 325.569C1496.8 326.725 1495.24 327.884 1493.67 329.043L1476.44 341.789L1473.9 343.594C1465.32 349.964 1461.75 357.092 1461.75 370.594V373.656H1481.62V373.153C1481.62 365.521 1483.91 361.162 1490.23 356.339L1508.96 342.542L1516.54 336.925C1524.61 330.929 1528.84 324.974 1529.3 314.369C1529.34 313.656 1529.34 312.942 1529.34 312.189V238.466L1485.07 238.466Z" fill="white"/>
<path d="M240.671 218.188L271.823 103.595C273.422 97.7122 281.759 97.6897 283.39 103.564L315.217 218.188H350.778L403.461 33.7979H372.642L338.653 158.498C337.046 164.392 328.686 164.392 327.079 158.498L293.091 33.7979H264.378L229.192 158.755C227.541 164.62 219.209 164.571 217.626 158.687L184.037 33.7979H152.428L205.11 218.188H240.671Z" fill="white"/>
<path d="M514.649 145.485V218.188H543.098V143.115C543.098 98.0708 518.864 81.739 488.835 81.739C475.485 81.739 465.333 85.1418 457.667 90.1409C452.827 93.2964 446.425 89.9646 446.425 84.1875V33.7979H417.713V218.188H446.425V147.329C446.425 121.515 458.542 106.237 482.513 106.237C503.586 106.237 514.649 119.934 514.649 145.485Z" fill="white"/>
<path d="M645.065 137.056H619.25C581.582 137.056 561.563 152.597 561.563 180.256C561.563 205.28 582.109 219.768 611.612 219.768C633.738 219.768 647.699 210.285 656.128 197.114V197.641C656.128 210.021 663.241 218.187 680.889 218.187H695.904V193.426H690.109C684.05 193.426 681.416 191.583 681.416 184.734V130.734C681.416 98.8608 660.87 81.7388 625.046 81.7388C591.065 81.7388 568.412 98.0706 565.514 124.412H593.436C595.543 112.295 606.343 104.656 623.729 104.656C642.431 104.656 653.231 113.349 653.231 128.89C653.231 133.4 649.575 137.056 645.065 137.056ZM653.231 162.87C653.231 183.68 639.27 197.641 615.563 197.641C600.021 197.641 590.538 190.529 590.538 178.148C590.538 164.714 600.285 158.129 617.934 158.129H648.49C651.108 158.129 653.231 160.252 653.231 162.87Z" fill="white"/>
<path d="M716.926 114.342V181.573C716.926 206.07 727.726 218.187 753.541 218.187H780.146V193.163H760.126C749.326 193.163 745.375 189.212 745.375 178.675V114.342C745.375 111.029 748.06 108.344 751.373 108.344H780.146V83.3193H751.373C748.06 83.3193 745.375 80.634 745.375 77.3215V45.6514H716.926V77.3215C716.926 80.634 714.241 83.3193 710.928 83.3193H693.482V108.344H710.928C714.241 108.344 716.926 111.029 716.926 114.342Z" fill="white"/>
<path d="M954.786 197.641C954.786 210.021 961.898 218.187 979.547 218.187H994.562V193.426H988.767C982.708 193.426 980.074 191.583 980.074 184.734V130.734C980.074 98.8608 959.528 81.7388 923.703 81.7388C889.723 81.7388 867.069 98.0706 864.172 124.412H892.094C894.201 112.295 905.001 104.656 922.386 104.656C941.089 104.656 951.889 113.349 951.889 128.89C951.889 133.4 948.233 137.056 943.723 137.056H917.908C880.24 137.056 860.221 152.597 860.221 180.256C860.221 205.28 880.767 219.768 910.269 219.768C932.396 219.768 946.357 210.285 954.786 197.114V197.641ZM914.22 197.641C898.679 197.641 889.196 190.529 889.196 178.148C889.196 164.714 898.942 158.129 916.591 158.129H947.147C949.766 158.129 951.889 160.252 951.889 162.87C951.889 183.68 937.928 197.641 914.22 197.641Z" fill="white"/>
<path d="M1106.8 218.187H1135.25V143.114C1135.25 98.0706 1111.02 81.7388 1080.99 81.7388C1065.92 81.7388 1054.98 85.9932 1046.96 92.001C1042.64 95.2378 1036.43 92.7315 1035.56 87.4048L1035.22 85.3298C1035.03 84.1704 1034.03 83.3193 1032.85 83.3193H1009.87V218.187H1038.58V147.065C1038.58 121.251 1050.69 106.236 1074.67 106.236C1095.74 106.236 1106.8 119.67 1106.8 145.222V218.187Z" fill="white"/>
<path d="M386.315 303.299C368.321 303.299 355.57 310.424 346.645 319.781C346.632 319.793 346.621 319.805 346.608 319.817C346.033 320.393 345.241 320.741 344.366 320.741C342.854 320.741 341.582 319.685 341.258 318.258C341.234 317.994 341.21 317.73 341.187 317.454C340.91 314.143 340.682 309.933 340.682 304.883H314.04L314.052 310.233H314.04C314.04 324.807 309.925 331.825 301.684 338.327L290.3 347.12C281.819 319.278 258.835 303.299 229.829 303.299C211.764 303.299 198.987 310.477 190.061 319.87C189.49 320.419 188.72 320.753 187.867 320.753C186.358 320.753 185.089 319.701 184.762 318.277C184.453 314.843 184.188 310.37 184.188 304.883H157.65V310.233C157.65 317.514 156.618 322.912 154.567 327.303C152.504 331.693 149.409 335.076 145.294 338.327L133.646 347.324C124.709 320.309 100.813 303.299 68.7483 303.299C27.6506 303.299 0 331.225 0 372.311C0 413.673 27.6506 441.335 68.7483 441.335C98.5703 441.335 121.314 426.76 131.547 402.949C132.578 400.574 133.478 398.09 134.233 395.535C135.22 392.265 135.981 388.846 136.524 385.301V385.346C137.388 379.23 140.746 374.118 144.473 371.209L149.589 367.321L157.65 361.154V492.438H186.367V433.163C186.367 429.067 191.169 426.849 194.274 429.52C202.745 436.809 214.651 441.335 230.093 441.335C256.711 441.335 278.316 426.856 288.128 402.949C289.076 400.645 289.916 398.246 290.636 395.763C291.587 392.498 292.331 389.081 292.864 385.534L292.864 385.584C293.725 379.482 297.116 374.146 300.832 371.233L305.979 367.321L314.148 361.071V492.438H342.854V433.154C342.854 429.064 347.664 426.844 350.759 429.519C359.24 436.801 371.14 441.335 386.579 441.335C423.202 441.335 450.324 413.937 450.324 372.311C450.324 329.114 423.202 303.299 386.315 303.299ZM108.203 374.746V378.585C105.876 401.341 90.7486 417.092 68.7483 417.092C44.7805 417.092 29.2341 398.39 29.2341 372.311C29.2341 346.244 44.7805 327.531 68.7483 327.531C92.4763 327.531 108.203 345.86 108.514 371.52C108.311 372.539 108.203 373.607 108.203 374.746ZM225.09 417.092C201.639 417.092 185.84 398.918 185.84 372.047C185.84 345.716 201.639 327.531 225.09 327.531C248.794 327.531 264.593 345.716 264.593 372.311C264.593 399.182 248.794 417.092 225.09 417.092ZM381.577 417.092C358.137 417.092 342.326 398.918 342.326 372.047C342.326 345.716 358.137 327.531 381.577 327.531C405.292 327.531 421.091 345.716 421.091 372.311C421.091 399.182 405.292 417.092 381.577 417.092Z" fill="white"/>
<path d="M653.385 319.881C653.402 319.86 653.415 319.839 653.432 319.818C652.924 320.453 652.065 320.741 651.189 320.741C649.678 320.741 649.166 319.696 648.842 318.269C648.532 314.836 648.269 310.37 648.269 304.883H646.76L621.736 304.882L621.734 304.883L621.736 305.987V310.233H621.734C621.734 324.807 617.619 331.825 609.378 338.327L597.742 347.324C588.793 320.309 564.909 303.299 532.832 303.299C491.735 303.299 464.084 331.225 464.084 372.311C464.084 413.673 491.735 441.335 532.832 441.335C562.666 441.335 585.41 426.76 595.631 402.949C596.651 400.585 597.55 398.126 598.318 395.583C599.29 392.329 600.048 388.928 600.592 385.401V385.48C601.456 379.364 604.814 374.251 608.541 371.343H608.381L613.673 367.321L621.736 361.152V439.75H650.448V372.053C650.448 351.243 658.351 331.487 683.902 331.487H696.282V304.882H689.697C670.776 304.882 660.311 311.315 653.385 319.881ZM572.287 374.746V378.585C569.96 401.341 554.832 417.092 532.832 417.092C508.864 417.092 493.318 398.39 493.318 372.311C493.318 346.244 508.864 327.531 532.832 327.531C556.56 327.531 572.287 345.86 572.598 371.52C572.395 372.539 572.287 373.607 572.287 374.746Z" fill="white"/>
<path d="M755.943 298.885V267.214H727.495V298.885C727.495 302.197 724.809 304.883 721.497 304.883H704.051V329.907H721.497C724.809 329.907 727.495 332.592 727.495 335.905V403.136C727.495 427.634 738.294 439.75 764.109 439.75H790.714V414.726H770.694C759.895 414.726 755.943 410.775 755.943 400.238V335.905C755.943 332.592 758.629 329.907 761.941 329.907H790.714V304.883H761.941C758.629 304.883 755.943 302.197 755.943 298.885Z" fill="white"/>
<path d="M1025.86 303.302C1011.69 303.302 1001.17 307.066 993.298 312.513C988.172 316.059 981.106 313.043 980.096 306.893C979.906 305.734 978.904 304.883 977.729 304.883H954.742V439.75H983.454V368.629C983.454 342.814 995.571 327.8 1019.54 327.8C1040.61 327.8 1051.68 341.234 1051.68 366.785V439.75H1080.13V364.677C1080.13 319.634 1055.89 303.302 1025.86 303.302Z" fill="white"/>
<path d="M1119.45 252.2C1110.23 252.2 1102.86 259.049 1102.86 268.532C1102.86 278.014 1110.23 285.127 1119.45 285.127C1128.94 285.127 1136.05 278.015 1136.05 268.532C1136.05 259.049 1128.94 252.2 1119.45 252.2Z" fill="white"/>
<path d="M1133.94 304.883H1105.23V439.75H1133.94V304.883Z" fill="white"/>
<path d="M1198.32 298.885V267.214H1169.87V298.885C1169.87 302.197 1167.19 304.883 1163.87 304.883H1146.43V329.907H1163.87C1167.19 329.907 1169.87 332.592 1169.87 335.905V403.136C1169.87 427.634 1180.67 439.75 1206.49 439.75H1233.09V414.726H1213.07C1202.27 414.726 1198.32 410.775 1198.32 400.238V335.905C1198.32 332.592 1201.01 329.907 1204.32 329.907H1233.09V304.883H1204.32C1201.01 304.883 1198.32 302.197 1198.32 298.885Z" fill="white"/>
<path d="M1314.24 394.851C1312.72 399.077 1306.75 399.083 1305.22 394.861L1272.6 304.883H1242.04L1290.17 430.443C1292.6 436.781 1292.63 443.787 1290.26 450.147L1288.93 453.712C1284.98 464.775 1282.35 467.409 1271.28 467.409H1251.26V492.434H1281.82C1301.58 492.434 1307.37 482.95 1315.8 461.087L1376.91 304.883H1346.62L1314.24 394.851Z" fill="white"/>
<path d="M898.976 376.961C898.976 380.02 898.821 382.887 898.497 385.586C896.205 405.175 885.673 415.42 868.315 415.42H864.945C847.586 415.42 837.054 405.175 834.763 385.586C834.439 382.887 834.283 380.02 834.283 376.961V304.962H805.973V379.036C805.973 383.631 806.225 387.925 806.717 391.932C809.068 411.102 816.793 423.589 827.517 430.955C828.717 431.794 829.964 432.55 831.248 433.258C833.671 434.577 836.214 435.669 838.865 436.557C839.753 436.856 840.641 437.132 841.552 437.384H841.481C842.068 437.528 842.668 437.672 843.268 437.816C843.771 437.936 844.263 438.068 844.755 438.176C857.915 441.175 874.769 442.411 891.911 437.336H891.851C895.414 436.341 898.821 434.997 902.011 433.258C917.042 425.017 927.287 408.138 927.287 379.036V304.962H898.976V376.961Z" fill="white"/>
</g>
<defs>
<clipPath id="clip0_431_170">
<rect width="1529.34" height="492.438" fill="white"/>
</clipPath>
</defs>
</svg>
