<svg width="1540" height="654" viewBox="0 0 1540 654" fill="none" xmlns="http://www.w3.org/2000/svg">
<g clip-path="url(#clip0_429_95)">
<path d="M82.3849 82.5065H34.9317C30.3677 82.5065 26.805 78.4928 26.805 73.8356C26.805 67.616 36.2797 59.8254 37.8059 58.6966C39.7178 57.2828 41.6294 55.8689 43.541 54.455C43.5412 54.455 64.5749 38.8966 64.5749 38.8966L67.6733 36.6959C78.1393 28.9165 82.5078 20.216 82.5078 3.73633V0H58.2508V0.61413C58.2508 9.92884 55.4575 15.2517 47.7351 21.1371L24.873 37.9754L15.6249 44.8333C5.7693 52.1519 0.61035 59.4196 0.05217 72.3679C0 73.2378 0 74.1081 0 75.0293V165.016H82.5078L82.3849 82.5065Z" fill="white"/>
<path d="M1233.48 390.503H1280.94C1285.5 390.503 1289.06 394.517 1289.06 399.174C1289.06 405.394 1279.59 413.184 1278.06 414.313C1276.15 415.727 1251.29 434.113 1251.29 434.113L1248.19 436.314C1237.73 444.093 1233.36 452.794 1233.36 469.273V473.01H1257.62V472.396C1257.62 463.081 1260.41 457.758 1268.13 451.873L1290.99 435.034L1300.24 428.177C1310.1 420.858 1315.26 413.59 1315.82 400.642C1315.87 399.772 1315.87 398.902 1315.87 397.98V307.994H1233.36L1233.48 390.503Z" fill="white"/>
<path d="M463.552 393.209C413.492 393.209 379.798 427.242 379.798 477.328C379.798 527.735 413.492 561.447 463.552 561.447C513.611 561.447 547.305 527.735 547.305 477.328C547.305 427.242 513.611 393.209 463.552 393.209ZM463.552 531.909C434.35 531.909 415.417 509.113 415.417 477.328C415.417 445.543 434.35 422.747 463.552 422.747C492.753 422.747 512.007 445.542 512.007 477.328C512.007 509.113 492.753 531.909 463.552 531.909Z" fill="white"/>
<path d="M616.749 387.725V349.223H582.092V387.725C582.092 391.818 578.775 395.135 574.683 395.135H553.532V425.636H574.683C578.775 425.636 582.092 428.954 582.092 433.046V514.892C582.092 544.751 595.249 559.52 626.696 559.52H659.107V529.019H634.719C621.562 529.019 616.749 524.203 616.749 511.361V433.046C616.749 428.954 620.066 425.636 624.158 425.636H659.107V395.135H624.158C620.066 395.135 616.749 391.818 616.749 387.725Z" fill="white"/>
<path d="M694.726 330.923C683.495 330.923 674.51 339.271 674.51 350.829C674.51 362.387 683.495 371.056 694.726 371.056C706.278 371.056 714.943 362.387 714.943 350.829C714.943 339.27 706.278 330.923 694.726 330.923Z" fill="white"/>
<path d="M712.375 395.136H677.397V559.521H712.375V395.136Z" fill="white"/>
<path d="M1008.3 393.209C991.022 393.209 978.199 397.804 968.606 404.452C962.377 408.77 953.781 405.099 952.554 397.619C952.319 396.187 951.081 395.135 949.629 395.135H921.661V559.52H956.639V472.833C956.639 441.369 971.4 423.068 1000.6 423.068C1026.27 423.068 1039.75 439.442 1039.75 470.585V559.52H1074.41V468.017C1074.41 413.115 1044.89 393.209 1008.3 393.209Z" fill="white"/>
<path d="M1149.47 387.725V349.223H1114.81V387.725C1114.81 391.818 1111.49 395.135 1107.4 395.135H1086.25V425.636H1107.4C1111.49 425.636 1114.81 428.954 1114.81 433.046V514.892C1114.81 544.751 1127.97 559.52 1159.41 559.52H1191.82V529.019H1167.44C1154.28 529.019 1149.47 524.203 1149.47 511.361V433.046C1149.47 428.954 1152.78 425.636 1156.87 425.636H1191.82V395.135H1156.87C1152.78 395.135 1149.47 391.818 1149.47 387.725Z" fill="white"/>
<path d="M320.117 484.077C320.117 487.856 319.924 491.398 319.524 494.733C316.693 518.933 303.683 531.59 282.24 531.59H278.076C256.634 531.59 243.623 518.933 240.792 494.733C240.392 491.398 240.2 487.856 240.2 484.077V395.129H205.227V476.786H205.195V507.132H205.198V522.505C205.198 529.885 201.656 535.028 194.276 540.496L186.571 546.335C186.556 546.35 186.526 546.38 186.512 546.395L186.229 546.602L185.193 547.388C184.096 548.069 182.821 548.455 181.444 548.455C177.442 548.455 174.197 545.209 174.197 541.208V395.129H146.356C145.043 395.129 143.938 396.009 143.516 397.252C140.926 404.874 131.651 408.323 124.614 403.695C114.774 397.204 101.986 393.202 86.2774 393.202C41.9841 393.202 8.6123 426.917 8.6123 477.334C8.6123 530.3 41.673 561.452 86.2774 561.452C103.927 561.452 117.338 555.835 127.533 547.728C132.394 543.86 139.536 547.313 139.536 553.523V616.278H139.496V653.327H176.325V616.278H176.279C176.437 598.857 181.53 590.327 191.55 582.407L216.712 562.978C217.097 562.667 217.483 562.356 217.883 562.059C222.936 558.295 229.204 556.057 235.991 556.057C239.444 556.057 242.763 556.635 245.86 557.702C246.957 558.073 248.053 558.413 249.18 558.725H249.091C249.817 558.902 250.558 559.08 251.299 559.258C251.921 559.406 252.529 559.569 253.137 559.703C269.392 563.408 290.213 564.934 311.389 558.665H311.314C315.716 557.435 319.924 555.776 323.866 553.627C342.434 543.445 355.089 522.594 355.089 486.641V395.129H320.117L320.117 484.077ZM92.0566 531.916C63.1754 531.916 44.2367 510.071 44.2367 477.334C44.2367 444.894 63.1754 422.753 92.0566 422.753C120.923 422.753 139.862 444.894 139.862 477.972C139.862 510.071 120.923 531.916 92.0566 531.916Z" fill="white"/>
<path d="M816.989 393.202C768.532 393.202 736.123 426.917 736.123 477.645C736.123 528.062 768.532 561.452 820.19 561.452C860.942 561.452 889.185 536.732 894.965 504.617H860.305C855.488 522.594 839.766 533.19 818.263 533.19C797.339 533.19 781.513 522.238 775.305 504.662C775.274 504.588 775.245 504.514 775.216 504.44C775.126 504.203 775.037 503.951 774.948 503.699C774.845 503.358 774.741 503.032 774.637 502.691C774.623 502.661 774.623 502.632 774.608 502.587C774.341 501.491 774.193 500.349 774.193 499.164C774.193 491.369 780.52 485.041 788.33 485.041H893.602C895.239 485.041 896.565 483.714 896.565 482.077V473.155C896.565 423.716 864.158 393.202 816.989 393.202ZM854.137 459.343L780.589 459.343C776.64 459.343 773.779 455.544 774.886 451.753C775.579 449.38 776.452 447.132 777.497 445.012C777.631 444.701 777.764 444.405 777.926 444.108C785.411 429.422 800.6 421.137 817.301 421.137C839.086 421.137 854.724 432.156 859.876 451.89C860.859 455.655 858.027 459.343 854.137 459.343Z" fill="white"/>
<path d="M154.571 263.604L155.126 260.13C156.202 253.406 164.135 250.321 169.439 254.59C179.647 262.804 193.634 268.026 211.612 268.026C256.537 268.026 289.589 234.314 289.589 183.907C289.589 130.931 256.537 99.7882 211.933 99.7882C194.08 99.7882 180.418 105.533 170.19 113.784C165.558 117.52 158.664 114.175 158.664 108.223V41.3545H123.687V266.099H151.644C153.1 266.099 154.341 265.042 154.571 263.604ZM205.836 129.326C234.716 129.326 253.97 151.48 253.97 183.907C253.97 216.656 234.716 238.488 205.836 238.488C177.276 238.488 158.022 216.335 158.022 183.586C158.022 151.48 177.276 129.326 205.836 129.326Z" fill="white"/>
<path d="M565.657 268.026C607.695 268.026 635.612 244.588 642.03 207.024H605.769C601.277 226.287 587.478 238.488 565.978 238.488C537.74 238.488 519.769 216.334 519.769 184.228C519.769 151.801 538.06 129.326 565.978 129.326C587.478 129.326 601.277 141.205 605.769 160.469H642.03C635.292 123.226 608.978 99.7881 566.62 99.7881C516.881 99.7881 484.15 133.5 484.15 184.228C484.15 235.598 515.277 268.026 565.657 268.026Z" fill="white"/>
<path d="M740.899 268.026C790.959 268.026 824.653 234.314 824.653 183.907C824.653 133.821 790.959 99.7881 740.899 99.7881C690.84 99.7881 657.146 133.821 657.146 183.907C657.146 234.314 690.84 268.026 740.899 268.026ZM740.899 129.326C770.101 129.326 789.355 152.122 789.355 183.907C789.355 215.692 770.101 238.488 740.899 238.488C711.698 238.488 692.765 215.692 692.765 183.907C692.765 152.122 711.698 129.326 740.899 129.326Z" fill="white"/>
<path d="M884.182 174.917C884.182 147.948 898.943 129.647 922.689 129.647C945.152 129.647 957.346 144.095 957.346 170.101V266.099H992.002V173.954C992.002 146.663 1007.08 129.647 1030.83 129.647C1053.29 129.647 1065.17 144.095 1065.17 170.101V266.099H1100.14V168.175C1100.14 118.731 1072.23 99.7881 1038.21 99.7881C1015.61 99.7881 999.171 108.169 988.177 121.091C985.122 124.682 979.492 124.394 976.68 120.61C966.084 106.349 949.35 99.7881 931.032 99.7881C915.752 99.7881 904.251 104.199 895.661 110.416C889.702 114.729 881.31 111.448 880.102 104.191C879.863 102.762 878.627 101.714 877.178 101.714H849.204V266.099H884.182V174.917Z" fill="white"/>
<path d="M1166.06 101.715H1131.08V266.1H1166.06V101.715Z" fill="white"/>
<path d="M1148.41 77.635C1159.96 77.635 1168.62 68.9662 1168.62 57.4079C1168.62 45.8496 1159.96 37.502 1148.41 37.502C1137.17 37.502 1128.19 45.8496 1128.19 57.4079C1128.19 68.9663 1137.17 77.635 1148.41 77.635Z" fill="white"/>
<path d="M1284.88 99.7881C1267.6 99.7881 1254.78 104.384 1245.19 111.031C1238.96 115.349 1230.36 111.678 1229.13 104.199C1228.9 102.766 1227.66 101.715 1226.21 101.715H1198.24V266.099H1233.22V179.412C1233.22 147.948 1247.98 129.647 1277.18 129.647C1302.85 129.647 1316.33 146.021 1316.33 177.165V266.099H1350.99V174.596C1350.99 119.694 1321.47 99.7881 1284.88 99.7881Z" fill="white"/>
<path d="M1511.58 101.722C1510.13 101.722 1508.89 102.774 1508.66 104.212C1507.36 112.303 1498.01 116.245 1491.34 111.459C1481.1 104.123 1467.76 99.7954 1451.3 99.7954C1406.7 99.7954 1373.64 134.148 1373.64 183.587C1373.64 235.278 1406.37 266.741 1451.94 266.741C1467.11 266.741 1479.35 262.487 1489.06 255.892C1489.06 255.878 1489.07 255.863 1489.1 255.863C1490.19 255.151 1491.22 254.396 1492.25 253.61C1492.53 253.388 1493.31 252.761 1493.31 252.761C1497.98 249.027 1504.89 252.373 1504.87 258.352C1504.87 258.723 1504.77 262.458 1504.66 263.821C1504.6 264.681 1504.53 265.51 1504.43 266.34C1501.65 291.845 1485.35 303.983 1457.72 303.983C1433.33 303.983 1417.6 293.713 1413.11 275.41H1377.81C1381.03 311.689 1410.86 332.244 1455.15 332.244C1511.95 332.244 1539.22 305.598 1539.22 259.36V101.722H1511.58ZM1457.08 237.531C1428.2 237.531 1409.26 215.686 1409.26 183.587C1409.26 151.161 1428.2 129.331 1457.08 129.331C1485.64 129.331 1504.89 151.487 1504.89 183.913C1504.89 215.686 1485.64 237.531 1457.08 237.531Z" fill="white"/>
<path d="M390.41 268.032C431.162 268.032 459.405 243.312 465.185 211.198H430.524C425.708 229.174 409.986 239.77 388.483 239.77C367.559 239.77 351.733 228.818 345.524 211.242C345.494 211.168 345.465 211.094 345.435 211.02C345.346 210.783 345.257 210.531 345.168 210.279C345.065 209.938 344.96 209.612 344.857 209.271C344.842 209.241 344.842 209.212 344.827 209.167C344.56 208.071 344.413 206.929 344.413 205.744C344.413 197.949 350.739 191.621 358.55 191.621H463.821C465.458 191.621 466.785 190.294 466.785 188.657V179.735C466.785 130.296 434.377 99.7822 387.209 99.7822C338.751 99.7822 306.343 133.497 306.343 184.225C306.343 234.643 338.751 268.032 390.41 268.032ZM345.106 158.333C345.798 155.96 346.672 153.712 347.717 151.592C347.85 151.281 347.983 150.985 348.146 150.688C355.63 136.002 370.819 127.718 387.52 127.718C409.306 127.718 424.944 138.736 430.096 158.471C431.078 162.235 428.246 165.923 424.356 165.923L350.809 165.923C346.86 165.923 343.999 162.124 345.106 158.333Z" fill="white"/>
</g>
<defs>
<clipPath id="clip0_429_95">
<rect width="1539.22" height="653.327" fill="white"/>
</clipPath>
</defs>
</svg>
