<svg width="879" height="400" viewBox="0 0 879 400" fill="none" xmlns="http://www.w3.org/2000/svg">
<g clip-path="url(#clip0_428_37)">
<path d="M186.914 322.361L149.919 322.361V49.7483H192.367V118.199C192.367 130.009 205.171 137.372 215.344 131.373C226.459 124.819 240.206 120.624 257.015 120.624C311.148 120.624 351.261 158.403 351.261 222.662C351.261 283.807 311.147 324.7 256.625 324.7C237.54 324.7 222.16 319.851 210.314 311.966C201.108 305.839 188.661 311.442 186.914 322.361ZM308.034 222.662C308.034 183.328 284.668 156.454 249.618 156.454C214.957 156.454 191.587 183.328 191.587 222.272C191.587 261.996 214.957 288.87 249.618 288.87C284.668 288.87 308.034 262.386 308.034 222.662Z" fill="#022781"/>
<path d="M536.167 326.864C536.167 315.002 523.289 307.607 513.087 313.658C502.003 320.232 488.349 324.441 471.51 324.441C417.371 324.441 377.252 286.657 377.252 222.39C377.252 161.238 417.76 120.339 471.51 120.339C490.658 120.339 506.22 125.218 518.194 133.146C527.423 139.255 539.872 133.607 541.62 122.679L578.235 122.679V400H536.167V326.864ZM536.557 223.17C536.557 183.051 513.578 156.174 478.523 156.174C443.468 156.174 420.49 183.051 420.49 222.39C420.49 262.119 443.468 288.606 478.523 288.606C513.578 288.606 536.557 262.119 536.557 223.17Z" fill="#022781"/>
<path d="M32.5112 89.5536C32.5112 95.2022 36.8323 100.07 42.3679 100.07H99.9228L100.072 200.144H0V91.0014C0 89.8841 0 88.8285 0.06318 87.7734C0.74015 72.0687 6.99735 63.2539 18.9512 54.3773L30.1679 46.0595L57.8968 25.6368C67.2632 18.4984 70.651 12.0425 70.651 0.74486V0H100.072V4.53169C100.072 24.5195 94.7735 35.0722 82.0794 44.5076L78.3215 47.1768C78.3215 47.1768 52.8101 66.0473 52.81 66.0473C50.4914 67.7622 48.1727 69.477 45.854 71.1918C44.0029 72.5609 32.5112 82.0099 32.5112 89.5536Z" fill="#022781"/>
<path d="M845.927 110.59C845.927 104.942 841.606 100.074 836.07 100.074H778.515L778.366 0H878.438V109.143C878.438 110.26 878.438 111.315 878.375 112.37C877.698 128.075 871.441 136.89 859.487 145.767L848.27 154.084L820.541 174.507C811.175 181.645 807.787 188.101 807.787 199.399V200.144H778.366V195.612C778.366 175.624 783.665 165.072 796.359 155.636L800.117 152.967C800.117 152.967 825.628 134.097 825.628 134.097C827.947 132.382 830.265 130.667 832.584 128.952C834.435 127.583 845.927 118.134 845.927 110.59Z" fill="#022781"/>
</g>
<defs>
<clipPath id="clip0_428_37">
<rect width="878.439" height="400" fill="white"/>
</clipPath>
</defs>
</svg>
