<svg width="1332" height="346" viewBox="0 0 1332 346" fill="none" xmlns="http://www.w3.org/2000/svg">
<g clip-path="url(#clip0_428_4)">
<path d="M161.105 276.275C160.938 277.322 160.035 278.093 158.974 278.093H128.9V42.9166H165.519V106.844C165.519 115.295 174.961 120.209 181.96 115.471C192.099 108.607 205.034 104.06 221.289 104.06C267.988 104.06 302.593 136.651 302.593 192.085C302.593 244.833 267.988 280.11 220.953 280.11C203.905 280.11 190.284 275.626 179.926 268.393C172.623 263.293 162.513 267.48 161.105 276.275ZM265.302 192.085C265.302 158.153 245.145 134.969 214.908 134.969C185.007 134.969 164.846 158.153 164.846 191.749C164.846 226.017 185.007 249.201 214.908 249.201C245.145 249.201 265.302 226.354 265.302 192.085ZM462.106 277.087C462.106 268.595 452.608 263.652 445.586 268.429C435.458 275.319 422.622 279.888 406.329 279.888C359.624 279.888 325.014 247.292 325.014 191.851C325.014 139.096 359.96 103.814 406.329 103.814C425.612 103.814 440.678 109.549 451.528 118.509C456.708 122.786 464.559 119.908 465.62 113.275L466.52 107.649C466.688 106.602 467.591 105.832 468.651 105.832H498.397V345.07H462.106V277.087ZM462.443 192.523C462.443 157.914 442.62 134.728 412.378 134.728C382.137 134.728 362.314 157.914 362.314 191.851C362.314 226.124 382.137 248.974 412.378 248.974C442.62 248.974 462.443 226.124 462.443 192.523ZM39.5571 61.4155C41.5574 59.9361 43.5577 58.4568 45.5579 56.9774L67.566 40.6983L70.8079 38.3957C81.7588 30.2559 86.3296 21.1523 86.3296 3.90937V0H60.9489V0.64258C60.9489 10.3887 58.0263 15.9582 49.9462 22.1162L26.0251 39.7344L16.3487 46.91C6.03645 54.5676 0.63852 62.1719 0.05451 75.7199C0 76.6302 0 77.5408 0 78.5046V172.659H86.3296L86.201 86.3282H36.5498C31.7744 86.3282 28.0466 82.1286 28.0466 77.2557C28.0466 70.7479 37.9603 62.5965 39.5571 61.4155ZM1291.9 111.244C1289.9 112.723 1287.9 114.202 1285.9 115.682C1285.9 115.682 1263.9 131.961 1263.9 131.961L1260.65 134.264C1249.7 142.403 1245.13 151.507 1245.13 168.75V172.659H1270.51V172.017C1270.51 162.27 1273.43 156.701 1281.51 150.543L1305.44 132.925L1315.11 125.749C1325.42 118.092 1330.82 110.487 1331.41 96.9393C1331.46 96.029 1331.46 95.1184 1331.46 94.1546V0H1245.13L1245.26 86.331H1294.91C1299.69 86.331 1303.41 90.5306 1303.41 95.4035C1303.41 101.911 1293.5 110.063 1291.9 111.244ZM738.979 232.284C717.256 232.284 702.635 247.052 702.635 268.787C702.635 290.661 717.256 305.289 738.979 305.289C760.702 305.289 775.324 290.661 775.324 268.787C775.324 247.052 760.702 232.284 738.979 232.284ZM738.979 292.472C726.308 292.472 718.092 282.58 718.092 268.787C718.092 254.994 726.308 245.102 738.979 245.102C751.651 245.102 760.006 254.994 760.006 268.787C760.006 282.58 751.651 292.472 738.979 292.472ZM805.458 229.905V213.197H790.419V229.905C790.419 231.681 788.98 233.12 787.204 233.12H778.026V246.356H787.204C788.98 246.356 790.419 247.795 790.419 249.571V285.088C790.419 298.045 796.128 304.453 809.775 304.453H823.839V291.218H813.256C807.547 291.218 805.458 289.128 805.458 283.555V249.571C805.458 247.795 806.898 246.356 808.673 246.356H823.839V233.12H808.673C806.898 233.12 805.458 231.681 805.458 229.905ZM831.776 304.453H846.954V233.12H831.776V304.453ZM839.296 205.255C834.422 205.255 830.523 208.878 830.523 213.893C830.523 218.909 834.422 222.671 839.296 222.671C844.309 222.671 848.068 218.909 848.068 213.893C848.068 208.878 844.309 205.255 839.296 205.255ZM975.37 232.284C967.871 232.284 962.306 234.278 958.144 237.163C955.441 239.037 951.711 237.444 951.178 234.198C951.076 233.577 950.539 233.12 949.909 233.12H937.772V304.453H952.951V266.836C952.951 253.182 959.356 245.241 972.028 245.241C983.168 245.241 989.017 252.347 989.017 265.861V304.453H1004.06V264.746C1004.06 240.922 991.244 232.284 975.37 232.284ZM1036.63 229.905V213.197H1021.59V229.905C1021.59 231.681 1020.15 233.12 1018.37 233.12H1009.19V246.356H1018.37C1020.15 246.356 1021.59 247.795 1021.59 249.571V285.088C1021.59 298.045 1027.3 304.453 1040.94 304.453H1055.01V291.218H1044.42C1038.71 291.218 1036.63 289.128 1036.63 283.555V249.571C1036.63 247.795 1038.07 246.356 1039.84 246.356H1055.01V233.12H1039.84C1038.07 233.12 1036.63 231.681 1036.63 229.905ZM676.737 271.716C676.737 273.355 676.653 274.892 676.48 276.339C675.252 286.841 669.606 292.333 660.301 292.333H658.494C649.189 292.333 643.543 286.841 642.315 276.339C642.141 274.892 642.058 273.355 642.058 271.716V233.117H626.882V268.552H626.868V281.72L626.869 288.391C626.869 291.594 625.332 293.825 622.129 296.198L618.786 298.732C618.779 298.738 618.766 298.751 618.76 298.758L618.638 298.848L618.188 299.189C617.712 299.484 617.159 299.651 616.561 299.651C614.824 299.651 613.416 298.243 613.416 296.507V233.117H601.335C600.765 233.117 600.286 233.499 600.103 234.038C598.979 237.346 594.954 238.843 591.9 236.834C587.63 234.017 582.081 232.281 575.264 232.281C556.043 232.281 541.562 246.911 541.562 268.789C541.562 291.774 555.908 305.291 575.264 305.291C582.923 305.291 588.742 302.854 593.167 299.336C595.276 297.658 598.375 299.156 598.375 301.851V329.083H598.358V345.16H614.34V329.083H614.323C614.393 321.527 616.599 317.821 620.946 314.385L631.865 305.954C632.032 305.819 632.2 305.684 632.373 305.555C634.566 303.922 637.286 302.951 640.231 302.951C641.73 302.951 643.17 303.202 644.514 303.664C644.99 303.825 645.466 303.973 645.955 304.108H645.916C646.231 304.185 646.552 304.263 646.874 304.34C647.144 304.404 647.408 304.475 647.671 304.533C654.725 306.141 663.761 306.803 672.95 304.082H672.917C674.827 303.549 676.653 302.828 678.364 301.896C686.421 297.478 691.913 288.43 691.913 272.828V233.117H676.737V271.716ZM577.772 292.474C565.239 292.474 557.021 282.995 557.021 268.789C557.021 254.712 565.239 245.104 577.772 245.104C590.299 245.104 598.517 254.712 598.517 269.066C598.517 282.995 590.299 292.474 577.772 292.474ZM892.351 232.281C871.323 232.281 857.259 246.911 857.259 268.924C857.259 290.803 871.323 305.291 893.74 305.291C911.424 305.291 923.68 294.565 926.188 280.629H911.147C909.057 288.43 902.234 293.028 892.904 293.028C883.824 293.028 876.956 288.275 874.262 280.648C874.249 280.616 874.236 280.584 874.223 280.552C874.185 280.449 874.146 280.339 874.107 280.23C874.063 280.082 874.017 279.941 873.972 279.793C873.966 279.78 873.966 279.767 873.96 279.748C873.844 279.272 873.78 278.777 873.78 278.262C873.78 274.879 876.525 272.134 879.914 272.134H925.596C926.306 272.134 926.882 271.558 926.882 270.848V266.976C926.882 245.522 912.819 232.281 892.351 232.281ZM908.471 260.982H876.555C874.841 260.982 873.6 259.334 874.08 257.689C874.381 256.659 874.76 255.683 875.213 254.764C875.271 254.629 875.329 254.5 875.4 254.371C878.647 247.998 885.239 244.403 892.486 244.403C901.939 244.403 908.726 249.185 910.961 257.748C911.388 259.382 910.159 260.982 908.471 260.982ZM558.029 184.773L558.271 183.266C558.737 180.348 562.18 179.01 564.482 180.862C568.911 184.426 574.981 186.692 582.782 186.692C602.277 186.692 616.62 172.063 616.62 150.19C616.62 127.201 602.277 113.687 582.921 113.687C575.174 113.687 569.246 116.18 564.807 119.76C562.797 121.382 559.806 119.93 559.806 117.347V88.3302H544.628V185.856H556.76C557.391 185.856 557.93 185.397 558.029 184.773ZM580.275 126.505C592.808 126.505 601.163 136.118 601.163 150.19C601.163 164.401 592.808 173.875 580.275 173.875C567.882 173.875 559.527 164.261 559.527 150.05C559.527 136.118 567.882 126.505 580.275 126.505ZM736.417 186.692C754.659 186.692 766.773 176.522 769.559 160.221H753.823C751.874 168.58 745.886 173.875 736.556 173.875C724.302 173.875 716.504 164.261 716.504 150.329C716.504 136.257 724.442 126.505 736.556 126.505C745.886 126.505 751.874 131.66 753.823 140.019H769.559C766.634 123.858 755.216 113.687 736.835 113.687C715.251 113.687 701.048 128.316 701.048 150.329C701.048 172.621 714.555 186.692 736.417 186.692ZM812.462 113.687C790.739 113.687 776.118 128.455 776.118 150.19C776.118 172.063 790.739 186.692 812.462 186.692C834.185 186.692 848.806 172.063 848.806 150.19C848.806 128.455 834.185 113.687 812.462 113.687ZM812.462 173.875C799.791 173.875 791.575 163.983 791.575 150.19C791.575 136.397 799.791 126.505 812.462 126.505C825.134 126.505 833.489 136.397 833.489 150.19C833.489 163.983 825.134 173.875 812.462 173.875ZM953.175 144.199V185.856H968.353V143.363C968.353 121.907 956.238 113.687 941.478 113.687C931.668 113.687 924.537 117.324 919.766 122.931C918.44 124.489 915.997 124.365 914.777 122.723C910.179 116.534 902.917 113.687 894.969 113.687C888.338 113.687 883.347 115.601 879.619 118.299C877.033 120.17 873.392 118.746 872.867 115.598C872.764 114.977 872.228 114.523 871.599 114.523H859.46V185.856H874.638V146.289C874.638 134.585 881.043 126.644 891.348 126.644C901.095 126.644 906.387 132.913 906.387 144.199V185.856H921.426V145.871C921.426 134.028 927.971 126.644 938.275 126.644C948.023 126.644 953.175 132.913 953.175 144.199ZM981.777 185.856H996.955V114.523H981.777V185.856ZM989.296 104.074C994.309 104.074 998.069 100.312 998.069 95.2963C998.069 90.2807 994.309 86.6583 989.296 86.6583C984.423 86.6583 980.524 90.2806 980.524 95.2963C980.524 100.312 984.423 104.074 989.296 104.074ZM1048.52 113.687C1041.02 113.687 1035.46 115.681 1031.29 118.566C1028.59 120.439 1024.86 118.847 1024.33 115.601C1024.23 114.979 1023.69 114.523 1023.06 114.523H1010.92V185.856H1026.1V148.239C1026.1 134.585 1032.51 126.644 1045.18 126.644C1056.32 126.644 1062.17 133.749 1062.17 147.264V185.856H1077.2V146.149C1077.2 122.325 1064.39 113.687 1048.52 113.687ZM1146.89 114.526C1146.26 114.526 1145.72 114.983 1145.63 115.606C1145.06 119.118 1141 120.828 1138.11 118.751C1133.67 115.568 1127.88 113.69 1120.74 113.69C1101.38 113.69 1087.03 128.597 1087.03 150.051C1087.03 172.482 1101.24 186.135 1121.01 186.135C1127.6 186.135 1132.91 184.289 1137.12 181.427C1137.12 181.421 1137.13 181.414 1137.14 181.414C1137.61 181.106 1138.06 180.777 1138.5 180.437C1138.62 180.34 1138.96 180.068 1138.96 180.068C1140.99 178.448 1143.99 179.9 1143.98 182.495C1143.98 182.656 1143.94 184.276 1143.89 184.868C1143.87 185.241 1143.83 185.601 1143.79 185.961C1142.59 197.029 1135.51 202.296 1123.52 202.296C1112.93 202.296 1106.11 197.839 1104.16 189.897H1088.85C1090.24 205.64 1103.19 214.559 1122.41 214.559C1147.05 214.559 1158.89 202.996 1158.89 182.932V114.526H1146.89ZM1123.24 173.459C1110.71 173.459 1102.49 163.98 1102.49 150.051C1102.49 135.98 1110.71 126.507 1123.24 126.507C1135.63 126.507 1143.99 136.121 1143.99 150.192C1143.99 163.98 1135.63 173.459 1123.24 173.459ZM658.981 113.684C637.953 113.684 623.89 128.315 623.89 150.328C623.89 172.206 637.953 186.695 660.37 186.695C678.054 186.695 690.31 175.968 692.818 162.032H677.777C675.687 169.833 668.865 174.431 659.534 174.431C650.454 174.431 643.586 169.679 640.892 162.052C640.879 162.019 640.867 161.987 640.854 161.955C640.815 161.852 640.776 161.743 640.738 161.634C640.693 161.486 640.648 161.344 640.603 161.196C640.596 161.183 640.596 161.171 640.59 161.151C640.474 160.675 640.41 160.18 640.41 159.666C640.41 156.283 643.155 153.537 646.544 153.537H692.226C692.937 153.537 693.512 152.961 693.512 152.251V148.379C693.512 126.926 679.449 113.684 658.981 113.684ZM675.101 142.386H643.186C641.472 142.386 640.231 140.737 640.711 139.092C641.011 138.063 641.39 137.087 641.844 136.167C641.902 136.032 641.96 135.903 642.03 135.775C645.278 129.402 651.869 125.807 659.116 125.807C668.57 125.807 675.356 130.588 677.591 139.152C678.018 140.785 676.789 142.386 675.101 142.386Z" fill="white"/>
</g>
<defs>
<clipPath id="clip0_428_4">
<rect width="1331.46" height="345.16" fill="white"/>
</clipPath>
</defs>
</svg>
